<svg width="48" height="48" viewBox="0 0 48 48" fill="none" xmlns="http://www.w3.org/2000/svg">
<path fill-rule="evenodd" clip-rule="evenodd" d="M16.2757 16.2757C16.6432 15.9081 17.2391 15.9081 17.6067 16.2757L24 22.669L30.3933 16.2757C30.7609 15.9081 31.3568 15.9081 31.7243 16.2757C32.0919 16.6432 32.0919 17.2391 31.7243 17.6067L25.331 24L31.7243 30.3933C32.0919 30.7609 32.0919 31.3568 31.7243 31.7243C31.3568 32.0919 30.7609 32.0919 30.3933 31.7243L24 25.331L17.6067 31.7243C17.2391 32.0919 16.6432 32.0919 16.2757 31.7243C15.9081 31.3568 15.9081 30.7609 16.2757 30.3933L22.669 24L16.2757 17.6067C15.9081 17.2391 15.9081 16.6432 16.2757 16.2757Z" fill="#9E7C48"/>
</svg>
